<svg id="SvgjsSvg1001" width="288" height="288" xmlns="http://www.w3.org/2000/svg" version="1.1" xmlns:xlink="http://www.w3.org/1999/xlink" xmlns:svgjs="http://svgjs.com/svgjs"><defs id="SvgjsDefs1002"></defs><g id="SvgjsG1008" transform="matrix(1,0,0,1,0,0)"><svg xmlns="http://www.w3.org/2000/svg" width="288" height="288" viewBox="0 0 48 48"><path fill="none" d="M0 0h48v48h-48z"></path><path d="M20.17 31.17l2.83 2.83 10-10-10-10-2.83 2.83 5.17 5.17h-19.34v4h19.34l-5.17 5.17zm17.83-25.17h-28c-2.21 0-4 1.79-4 4v8h4v-8h28v28h-28v-8h-4v8c0 2.21 1.79 4 4 4h28c2.21 0 4-1.79 4-4v-28c0-2.21-1.79-4-4-4z" fill="#ffffff" class="color000 svgShape"></path></svg></g></svg>