<svg width="53" height="117" viewBox="0 0 53 117" fill="none" xmlns="http://www.w3.org/2000/svg">
<path d="M29.2316 43.5C27.9569 26.2873 30.1319 22.8637 32.7316 14C24.6541 27.5257 19.8652 34.9575 21.2316 54L26.7316 79.5C29.9354 93.6235 26.626 101.879 22.2781 116.5C27.5975 110.284 32.9131 99.3652 35.7116 93.1587C37.0816 90.1204 37.5388 86.7649 37.1707 83.4525L36.7316 79.5L29.2316 43.5Z" fill="#32BBDD"/>
<path d="M17.6884 28.5C17.9145 19.9964 35.3354 0.322629 35.1884 0C23.1667 8.89257 17.3282 14.5359 10.1883 27C6.2398 36.9171 5.60188 42.5027 6.18834 52.5C8.6104 64.7615 11.504 71.5029 19.6883 83C15.9045 72.1357 14.6889 65.7893 14.1884 54C13.1884 41.5 17.6884 28.5 17.6884 28.5Z" fill="#283F83"/>
<path d="M44 54C46.345 50.9713 45.2036 48.486 43 44L46.1179 45.7816C46.3721 45.9269 46.6131 46.0943 46.8381 46.2818L49.5 48.5C49.9602 48.9271 50.3369 49.2895 50.7173 49.7449C52.0857 51.3832 52.5218 53.7006 51.7569 55.6935C50.8457 58.0676 49.0994 59.6345 45.5 61.5C46.5968 61.7005 34.5564 66.4325 27.5 68L6 73L21.5 68C26.5322 66.1644 29.9007 64.5332 37 60.5C39.545 59.1887 41.0428 57.9868 44 54Z" fill="#3F54A2"/>
<path d="M38 44C40.345 40.9713 39.2036 38.486 37 34L40.1179 35.7816C40.3721 35.9269 40.6131 36.0943 40.8381 36.2818L43.5 38.5C43.9602 38.9271 44.3369 39.2895 44.7173 39.7449C46.0857 41.3832 46.5218 43.7006 45.7569 45.6935C44.8457 48.0676 43.0994 49.6345 39.5 51.5C40.5968 51.7005 28.5564 56.4325 21.5 58L0 63L15.5 58C20.5322 56.1644 23.9007 54.5332 31 50.5C33.545 49.1887 35.0428 47.9868 38 44Z" fill="#3F54A2"/>
</svg>
