<svg width="1048" height="602" viewBox="0 0 1048 602" fill="none" xmlns="http://www.w3.org/2000/svg">
<rect width="1048" height="602" fill="#C4C4C4"/>
<path d="M333.448 274.818H330.278V301H333.448V274.818ZM339.805 274.818V301H342.771V281.108H343.027L351.209 301H354.072L362.254 281.108H362.51V301H365.476V274.818H361.692L352.794 296.551H352.487L343.589 274.818H339.805ZM372.906 301L375.54 293.585H386.125L388.759 301H392.083L382.469 274.818H379.196L369.583 301H372.906ZM376.537 290.773L380.73 278.96H380.935L385.128 290.773H376.537ZM412.828 283H416.101C415.129 277.938 410.885 274.46 405.362 274.46C398.65 274.46 393.907 279.625 393.907 287.909C393.907 296.193 398.612 301.358 405.567 301.358C411.805 301.358 416.254 297.203 416.254 290.722V287.909H406.282V290.722H413.186C413.096 295.426 410.003 298.392 405.567 298.392C400.709 298.392 396.976 294.71 396.976 287.909C396.976 281.108 400.709 277.426 405.362 277.426C409.146 277.426 411.716 279.561 412.828 283ZM421.684 301H437.69V298.188H424.855V289.29H436.667V286.477H424.855V277.631H437.485V274.818H421.684V301ZM443.2 274.818V301H446.166V281.108H446.421L454.603 301H457.467L465.649 281.108H465.904V301H468.87V274.818H465.086L456.188 296.551H455.882L446.984 274.818H443.2ZM493.432 301C501.409 301 505.909 296.04 505.909 287.858C505.909 279.727 501.409 274.818 493.79 274.818H485.352V301H493.432ZM488.523 298.188V277.631H493.585C499.721 277.631 502.841 281.517 502.841 287.858C502.841 294.25 499.721 298.188 493.227 298.188H488.523ZM533.318 287.909C533.318 279.625 528.46 274.46 521.761 274.46C515.062 274.46 510.204 279.625 510.204 287.909C510.204 296.193 515.062 301.358 521.761 301.358C528.46 301.358 533.318 296.193 533.318 287.909ZM530.25 287.909C530.25 294.71 526.517 298.392 521.761 298.392C517.006 298.392 513.273 294.71 513.273 287.909C513.273 281.108 517.006 277.426 521.761 277.426C526.517 277.426 530.25 281.108 530.25 287.909ZM548.774 301H551.944V291.438H557.672C563.77 291.438 566.518 287.73 566.518 283.102C566.518 278.474 563.77 274.818 557.621 274.818H548.774V301ZM551.944 288.625V277.631H557.518C561.775 277.631 563.399 279.957 563.399 283.102C563.399 286.247 561.775 288.625 557.569 288.625H551.944ZM571.626 301H574.796V290.773H580.523C580.753 290.773 580.971 290.773 581.188 290.76L586.711 301H590.393L584.474 290.185C587.81 289.047 589.37 286.324 589.37 282.847C589.37 278.219 586.608 274.818 580.472 274.818H571.626V301ZM574.796 287.909V277.631H580.37C584.614 277.631 586.251 279.702 586.251 282.847C586.251 285.991 584.614 287.909 580.421 287.909H574.796ZM616.744 287.909C616.744 279.625 611.886 274.46 605.187 274.46C598.488 274.46 593.63 279.625 593.63 287.909C593.63 296.193 598.488 301.358 605.187 301.358C611.886 301.358 616.744 296.193 616.744 287.909ZM613.676 287.909C613.676 294.71 609.943 298.392 605.187 298.392C600.431 298.392 596.698 294.71 596.698 287.909C596.698 281.108 600.431 277.426 605.187 277.426C609.943 277.426 613.676 281.108 613.676 287.909ZM630.154 301C638.132 301 642.632 296.04 642.632 287.858C642.632 279.727 638.132 274.818 630.512 274.818H622.075V301H630.154ZM625.245 298.188V277.631H630.308C636.444 277.631 639.563 281.517 639.563 287.858C639.563 294.25 636.444 298.188 629.95 298.188H625.245ZM665.132 274.818V291.898C665.132 295.733 662.498 298.494 658.126 298.494C653.754 298.494 651.12 295.733 651.12 291.898V274.818H647.95V292.153C647.95 297.523 651.964 301.46 658.126 301.46C664.288 301.46 668.302 297.523 668.302 292.153V274.818H665.132ZM673.202 277.631H681.434V301H684.605V277.631H692.838V274.818H673.202V277.631ZM718.732 287.909C718.732 279.625 713.874 274.46 707.175 274.46C700.476 274.46 695.618 279.625 695.618 287.909C695.618 296.193 700.476 301.358 707.175 301.358C713.874 301.358 718.732 296.193 718.732 287.909ZM715.664 287.909C715.664 294.71 711.931 298.392 707.175 298.392C702.42 298.392 698.687 294.71 698.687 287.909C698.687 281.108 702.42 277.426 707.175 277.426C711.931 277.426 715.664 281.108 715.664 287.909Z" fill="black"/>
</svg>
