<svg width="106" height="106" viewBox="0 0 106 106" fill="none" xmlns="http://www.w3.org/2000/svg">
<path d="M31.4688 39.75C31.4688 39.3107 31.6432 38.8895 31.9539 38.5789C32.2645 38.2682 32.6857 38.0938 33.125 38.0938H72.875C73.3143 38.0938 73.7355 38.2682 74.0461 38.5789C74.3568 38.8895 74.5312 39.3107 74.5312 39.75C74.5312 40.1893 74.3568 40.6105 74.0461 40.9211C73.7355 41.2318 73.3143 41.4062 72.875 41.4062H33.125C32.6857 41.4062 32.2645 41.2318 31.9539 40.9211C31.6432 40.6105 31.4688 40.1893 31.4688 39.75ZM72.875 51.3438H33.125C32.6857 51.3438 32.2645 51.5182 31.9539 51.8289C31.6432 52.1395 31.4688 52.5607 31.4688 53C31.4688 53.4393 31.6432 53.8605 31.9539 54.1711C32.2645 54.4818 32.6857 54.6562 33.125 54.6562H72.875C73.3143 54.6562 73.7355 54.4818 74.0461 54.1711C74.3568 53.8605 74.5312 53.4393 74.5312 53C74.5312 52.5607 74.3568 52.1395 74.0461 51.8289C73.7355 51.5182 73.3143 51.3438 72.875 51.3438ZM72.875 64.5938H33.125C32.6857 64.5938 32.2645 64.7682 31.9539 65.0789C31.6432 65.3895 31.4688 65.8107 31.4688 66.25C31.4688 66.6893 31.6432 67.1105 31.9539 67.4211C32.2645 67.7318 32.6857 67.9062 33.125 67.9062H72.875C73.3143 67.9062 73.7355 67.7318 74.0461 67.4211C74.3568 67.1105 74.5312 66.6893 74.5312 66.25C74.5312 65.8107 74.3568 65.3895 74.0461 65.0789C73.7355 64.7682 73.3143 64.5938 72.875 64.5938Z" fill="white"/>
</svg>
